<mxfile host="app.diagrams.net" modified="2023-06-09T00:26:06.306Z" agent="Mozilla/5.0 (Windows NT 10.0; Win64; x64) AppleWebKit/537.36 (KHTML, like Gecko) Chrome/114.0.0.0 Safari/537.36" version="21.3.8" etag="y-CzzAmVAFUCtg0C4q0Z" type="github">
  <diagram name="페이지-1" id="lN_Ez4DPIi1FrcsFWHEU">
    <mxGraphModel>
      <root>
        <mxCell id="0" />
        <mxCell id="1" parent="0" />
      </root>
    </mxGraphModel>
  </diagram>
</mxfile>
